<?xml version="1.0" encoding="UTF-8"?>
<svg id="logo-74" xmlns="http://www.w3.org/2000/svg" viewBox="0 0 70 44">
  <defs>
    <style>
      .cls-1 {
        fill-rule: evenodd;
      }

      .cls-1, .cls-2 {
        fill: #fff;
        stroke-width: 0px;
      }
    </style>
  </defs>
  <path class="cls-2" d="M65.53,5.41c0,.05,0,.12-.01.15-.07.5-.07,1-.03,1.51.03.13.05.26.16.36.17.19.43.15.54-.08.05-.12.05-.23.03-.35-.13-.49-.16-1-.17-1.5v-.1c.14-.01.28-.03.39-.03.09-.01.17-.03.24-.06.2-.1.2-.32-.01-.42-.08-.04-.18-.05-.28-.05-.33.01-.66.01-.98.01-.12,0-.24.01-.35.03-.07.01-.14.01-.2.05-.09.04-.14.1-.14.19.01.09.05.14.14.18.05.04.12.05.18.05.16.01.33.04.5.05ZM69.13,6s.01.03.01.03c.05.35.1.68.14,1.01.01.12.03.22.1.31.17.22.43.19.55-.04.05-.12.07-.23.04-.36-.08-.38-.12-.77-.2-1.14-.05-.23-.12-.45-.18-.65-.04-.13-.13-.22-.29-.23-.16-.03-.28.05-.34.17-.08.1-.14.21-.2.32-.09.21-.17.41-.28.6-.01.05-.03.09-.05.13-.01-.03-.03-.04-.03-.04-.17-.32-.33-.64-.5-.95-.03-.03-.04-.05-.05-.08-.08-.12-.17-.18-.31-.18-.13.01-.24.09-.3.21-.03.05-.03.09-.04.14-.05.41-.12.82-.17,1.23-.03.23-.04.46-.04.69-.01.05,0,.12.03.17.03.1.1.17.21.18.13.01.22-.03.26-.13.04-.08.05-.14.07-.21.05-.23.09-.45.13-.67.03-.13.04-.23.08-.37.03.05.05.09.08.13.12.15.24.31.38.44.14.1.26.09.38-.03.03-.03.04-.04.07-.06.12-.18.26-.36.38-.54.03-.03.04-.05.07-.08Z"/>
  <path class="cls-2" d="M38.91,5.66c-.09.24-.11.42-.07.57.05.2.17.26.33.21,1.54-.37,4.92.68,6.17.98.29.06.53-.31.33-.64-.29-.32-3.67-1.71-4.96-1.78-.51-.03-1.41-.15-1.81.67Z"/>
  <path class="cls-2" d="M52.11,1.18c.16.09.26.18.3.28.07.13.03.22-.08.26-1.02.49-2.37,2.58-2.92,3.3-.13.17-.44.07-.48-.2,0-.31,1.21-2.58,1.88-3.2.26-.24.7-.72,1.3-.44Z"/>
  <path class="cls-2" d="M44,.15c.2-.15.4-.2.51-.1,1.54,1.28,2.35,3.32,2.86,5.18.02.04.02.11,0,.17,0,.06-.05.11-.11.16-.07.05-.13.07-.16.02-.67-.9-4.52-4.38-3.1-5.43Z"/>
  <path class="cls-2" d="M11.46,22.43c.37-.27.77-.49,1.19-.66.44-.12.92-.1,1.35.06.43.16.79.46,1.04.84.22.38.3.82.24,1.26-.06.43-.26.84-.58,1.15-.24.25-.52.47-.82.65-1.35.85-2.71,1.66-4.07,2.51-.28.21-.57.4-.88.57-.47.23-1.01.29-1.52.17-.51-.12-.97-.41-1.28-.81-.24-.29-.44-.61-.6-.94-1.29-2.65-2.62-5.28-3.86-7.97-.57-1.17-1.04-2.51-1.49-3.8-.2-.38-.23-.81-.11-1.22.13-.4.41-.74.79-.94.38-.2.82-.25,1.24-.14s.77.38.99.75c.67.87,1.26,1.79,1.76,2.75,1.29,2.33,2.52,4.66,3.76,6.93.07.12.15.25.24.36.93-.38,1.81-.89,2.61-1.49Z"/>
  <path class="cls-2" d="M24.78,21.61c-2.95,3.37-7.88,2.52-10.36-1.82-1.76-3.08-2.07-8.16,1.76-11.37.82-.67,1.8-1.13,2.85-1.33,1.29-.18,2.6.04,3.75.63,1.15.59,2.08,1.53,2.65,2.67,2.1,3.73,1.8,8.49-.66,11.22ZM23.58,13.76c-.31-.92-.94-1.7-1.78-2.22-.47-.33-1.05-.49-1.63-.45-.58.04-1.13.27-1.56.65-1.71,1.48-2.06,4.99-.82,7.08.16.34.39.64.68.89s.63.42,1,.52c.37.1.75.12,1.13.06.38-.06.74-.2,1.05-.41.92-.7,1.6-1.67,1.94-2.76.34-1.09.32-2.27-.06-3.35h.04Z"/>
  <path class="cls-2" d="M36.8,15.23c-.3.06-.61.07-.92.01-.3-.06-.59-.17-.85-.34-.22-.13-.42-.3-.57-.51-.15-.21-.25-.44-.29-.69-.04-.25-.03-.51.04-.75.07-.24.19-.47.36-.66.3-.38.72-.66,1.19-.78,1.24-.35,2.52-.57,3.82-.64.28-.03.57,0,.85.07.27.08.53.21.75.38.22.18.41.39.54.64.13.25.22.52.24.8.37,1.37.41,2.8.12,4.19-1.07,4.48-4.77,6.02-8.92,4.58-1.16-.38-2.19-1.1-2.93-2.05-1-1.15-1.7-2.51-2.06-3.98-.29-1.3-.26-2.66.09-3.95.35-1.29,1.02-2.48,1.93-3.47.87-1.07,2-1.92,3.29-2.46.81-.44,1.77-.56,2.67-.35.2.06.39.16.54.31.15.15.25.33.3.54.05.2.04.41-.02.61-.06.2-.18.38-.33.52-.3.26-.62.5-.97.7-1.06.66-1.98,1.51-2.72,2.51-.48.64-.81,1.38-.97,2.17-.16.78-.14,1.59.06,2.37.27,1.06.87,2.01,1.72,2.72,2.62,2.33,6.03.08,5.44-3.1-.87.21-1.63.43-2.41.62Z"/>
  <path class="cls-2" d="M52.82,21.8c-3.88,2.33-8.29,0-9.25-4.9-.7-3.5.63-8.39,5.31-10.26.99-.39,2.07-.52,3.14-.4,1.28.23,2.45.84,3.35,1.76.9.91,1.49,2.08,1.67,3.34.79,4.16-1,8.6-4.21,10.46ZM54.17,13.95c0-.97-.35-1.91-.99-2.65-.34-.46-.83-.79-1.4-.93-.56-.14-1.16-.09-1.68.15-2.1.89-3.58,4.1-3.04,6.47.04.37.16.73.36,1.05s.46.59.78.8c.32.21.68.35,1.05.41.38.06.76.04,1.13-.07,1.11-.38,2.07-1.09,2.75-2.03.68-.94,1.04-2.06,1.03-3.21Z"/>
  <path class="cls-2" d="M60.95,22.78c-.06.43-.29.81-.64,1.07-.35.26-.79.38-1.23.32-.44-.06-.83-.28-1.1-.62-.27-.34-.38-.77-.33-1.2.06-.43.29-.81.64-1.07.35-.26.79-.38,1.23-.32.44.06.83.28,1.1.62.27.34.38.77.33,1.2ZM59.91,7.05c.23-.34.56-.6.95-.74.39-.14.81-.15,1.21-.03.4.1.76.33,1.01.65.25.32.38.72.36,1.13-.05.65-.15,1.3-.3,1.94-.39,2.16-.78,4.31-1.19,6.45-.19.85-.44,1.67-.72,2.53-.1.27-.25.51-.47.71-.13.15-.3.26-.49.33-.19.07-.39.09-.59.06-.2-.03-.39-.1-.55-.22-.16-.12-.29-.27-.37-.45-.14-.32-.22-.67-.23-1.01,0-1.45,0-2.9.1-4.36.16-2.08.48-4.15.95-6.18.06-.27.16-.53.31-.77v-.03Z"/>
  <path class="cls-1" d="M6.42,32.15c-.14.31-.18.65-.11.98.05.43.15.86.3,1.27.19.5.4,1,.67,1.61.06.14.12.29.19.44.36.83.8,1.89,1.4,3.43.17.44.32.88.47,1.32.06.18.12.36.18.54.22.64.61,1.21,1.12,1.67.22.25.5.43.83.52.33.09.68.09,1-.02.33-.1.61-.3.82-.57.21-.26.33-.57.35-.9.13-.64.09-1.3-.13-1.91-.35-1.02-.74-2.04-1.2-3.04h0c-.75-1.57-1.52-3.12-2.32-4.67h0c-.23-.42-.54-.78-.9-1.08-.23-.27-.56-.45-.91-.52-.36-.06-.74,0-1.06.18-.3.17-.54.43-.69.74Z"/>
  <path class="cls-1" d="M17.91,28.3c-1.18-.3-2.41-.34-3.61-.13-.93.09-1.84.3-2.47.71-.32.21-.58.48-.73.83-.15.35-.16.74-.04,1.18.22.81.5,1.59.78,2.38l.05.13h0c.85,2.28,1.71,4.54,2.57,6.8.1.36.24.7.43,1.02h0c.24.41.55.77.91,1.07.18.17.41.28.65.33.25.05.5.04.74-.04.24-.08.45-.22.61-.41.16-.19.26-.41.3-.65.16-.65.11-1.33-.14-1.95-.08-.21-.14-.42-.2-.65-.02-.07-.04-.15-.07-.23,1.98-.76,4.09-1.77,4.83-4.14.29-.82.31-1.7.07-2.54-.25-.83-.75-1.57-1.44-2.11-.94-.76-2.04-1.31-3.22-1.61ZM14.64,31.2s.08-.02.12-.03c1.29-.2,2.61.07,3.71.74.49.33.69.7.72,1.05.04.36-.1.76-.37,1.14-.52.72-1.46,1.29-2.3,1.4-.62-1.39-1.25-2.84-1.88-4.31Z"/>
  <path class="cls-2" d="M25.76,25.75c1.4-.63,3.14-.74,4.5-.3.34.1.64.31.84.6.2.29.29.63.26.98,0,.22-.06.44-.16.64-.11.2-.26.38-.46.51-.19.13-.41.22-.64.25-.23.03-.47,0-.69-.07h-.02s-.02-.01-.02-.01c-.11-.06-.23-.1-.36-.13h0c-.96-.25-1.86.16-2.19.67-.16.24-.18.48-.05.71.14.24.48.5,1.18.69.19.05.39.1.59.15.55.14,1.12.28,1.68.48h0c2.55.95,3.5,2.92,3.18,4.77-.32,1.83-1.88,3.49-4.23,3.89-.86.19-1.74.15-2.58-.1-.84-.25-1.59-.72-2.19-1.35l-.02-.02c-.19-.24-.32-.52-.37-.81-.05-.27-.02-.54.08-.79.1-.25.28-.47.5-.62.24-.18.52-.29.82-.31.3-.02.59.04.85.18.26.12.5.28.72.47h0c.38.35.85.44,1.3.35.45-.08.88-.35,1.15-.69.27-.35.38-.76.25-1.15-.13-.4-.52-.85-1.38-1.23-.23-.09-.46-.17-.7-.24-.07-.02-.13-.04-.2-.06-.18-.05-.36-.11-.55-.17-.12-.04-.25-.08-.37-.12-.34-.11-.66-.21-.98-.35-.68-.23-1.28-.67-1.69-1.25-.41-.58-.62-1.28-.59-1.99,0-1.73,1.12-2.92,2.53-3.56Z"/>
  <path class="cls-2" d="M43.56,25.56c-.27-.13-.57-.19-.88-.18-.3.01-.6.1-.86.25-.26.15-.48.36-.63.61-.14.21-.24.45-.29.7-.05.25-.05.51,0,.75.05.32.11.63.16.94.09.51.18,1,.24,1.51h0c.13.81.2,1.61.21,2.41h0c.05.88-.26,1.73-.84,2.38h0c-.19.25-.45.43-.74.54-.29.11-.6.13-.91.07s-.58-.2-.81-.41c-.23-.21-.39-.47-.47-.76-.17-.62-.27-1.25-.3-1.89l.3-4.63c0-.06,0-.12.01-.18.01-.14.02-.28.03-.42,0-.2,0-.4-.05-.59-.05-.2-.14-.38-.3-.54-.16-.16-.38-.27-.65-.35-.49-.14-.91-.13-1.25,0-.35.14-.58.41-.75.72-.17.31-.27.67-.35,1.03-.06.27-.11.55-.15.82-.02.09-.03.18-.05.27h0c-.25,1.48-.32,2.97-.22,4.46.02.81.19,1.6.51,2.34.36.96,1,1.79,1.85,2.38.85.59,1.87.92,2.91.94s2.07-.28,2.94-.84c.87-.57,1.54-1.38,1.93-2.32.54-1.21.8-2.52.75-3.84-.03-.96-.09-1.93-.14-2.9-.03-.47-.05-.95-.08-1.42-.01-.47-.17-.93-.46-1.31-.18-.24-.41-.43-.68-.56Z"/>
  <path class="cls-2" d="M53.2,32.82s-.06.07-.09.11c-.22-1.25-.43-2.5-.63-3.75-.07-.45-.15-.9-.22-1.35v-.05s-.04-.04-.04-.04c-.05-.08-.06-.16-.06-.33v-.04c-.06-.35-.22-.68-.47-.94-.25-.26-.57-.44-.92-.52-.35-.09-.73-.07-1.07.05-.34.12-.64.34-.86.62-.18.22-.33.46-.44.72-.25.56-.51,1.12-.76,1.68h0c-.64,1.41-1.27,2.82-1.9,4.24h0c-.38.93-.7,1.9-1.01,2.87-.06.19-.13.39-.19.58-.11.31-.16.63-.15.95-.02.29.05.58.2.83.16.26.39.46.67.57.3.13.63.15.94.08.31-.08.59-.25.79-.5.25-.31.47-.64.65-.99.53-1.05,1.03-2.12,1.53-3.18.19-.41.38-.78.6-1.18.01.05.03.1.05.15.22.97.6,1.89,1.12,2.74.1.18.24.34.4.46.17.13.36.21.57.26.21.04.42.04.63,0,.21-.04.4-.13.57-.26l.33-.24,2.58-2.13-.15.95c-.21,1.31-.42,2.6-.64,3.9-.14.58-.14,1.18,0,1.75.06.32.22.62.46.86.24.24.54.4.88.46.33.06.68.03.99-.1.31-.13.57-.34.75-.62.43-.52.69-1.14.76-1.8.11-.93.23-1.88.36-2.82.14-1.09.29-2.18.41-3.24h0c.12-1.17.17-2.34.17-3.52.03-.37-.07-.74-.27-1.06-.2-.32-.5-.56-.85-.7-.37-.16-.78-.21-1.17-.12-.39.08-.75.28-1.01.58-.48.43-.92.89-1.34,1.38h0c-.45.55-.9,1.12-1.35,1.68-.27.34-.54.68-.81,1.01Z"/>
</svg>